<?xml version="1.0" standalone="no"?>
<!DOCTYPE svg PUBLIC "-//W3C//DTD SVG 20010904//EN"
 "http://www.w3.org/TR/2001/REC-SVG-20010904/DTD/svg10.dtd">
<svg version="1.0" xmlns="http://www.w3.org/2000/svg"
 width="151.000000pt" height="34.000000pt" viewBox="0 0 151.000000 34.000000"
 preserveAspectRatio="xMidYMid meet">

<g transform="translate(0.000000,34.000000) scale(0.100000,-0.100000)"
fill="#000000" stroke="none">
<path d="M130 181 c0 -101 7 -109 77 -96 51 9 80 31 93 69 23 70 -21 116 -112
116 l-58 0 0 -89z m114 58 c19 -15 26 -30 26 -55 0 -47 -14 -70 -50 -83 -53
-18 -60 -8 -60 80 l0 79 29 0 c15 0 40 -9 55 -21z" fill="#2764F6"/>
<path d="M348 183 c2 -49 7 -92 12 -97 5 -5 30 -5 56 -1 79 11 123 74 98 140
-10 26 -59 45 -116 45 l-53 0 3 -87z m117 52 c45 -44 20 -126 -42 -138 -48 -9
-53 -1 -53 84 l0 79 35 0 c25 0 44 -8 60 -25z" fill="#2764F6"/>
<path d="M560 206 c0 -35 -3 -78 -6 -95 -5 -24 -3 -31 9 -31 13 0 17 15 19 78
l3 77 38 -72 c20 -40 41 -73 45 -73 5 0 24 32 43 71 l34 72 8 -74 c9 -82 10
-84 31 -76 12 5 13 13 5 39 -5 18 -9 59 -9 90 0 49 -3 58 -18 58 -12 0 -28
-21 -50 -65 -33 -67 -46 -78 -56 -47 -12 37 -66 112 -81 112 -12 0 -15 -13
-15 -64z" fill="#2764F6"/>
<path d="M842 178 l3 -93 38 1 c62 2 103 59 60 83 -17 9 -17 10 0 28 35 39 8
73 -59 73 l-45 0 3 -92z m88 62 c13 -25 6 -38 -28 -51 -33 -13 -44 -1 -36 39
5 25 12 32 30 32 13 0 28 -9 34 -20z m4 -92 c12 -20 -4 -41 -41 -53 -21 -6
-23 -3 -23 35 0 39 2 41 26 38 15 -2 32 -11 38 -20z" fill="#2764F6"/>
<path d="M1010 180 c0 -104 7 -112 74 -89 46 16 59 48 31 79 -14 16 -14 18 0
23 18 7 20 48 3 65 -7 7 -34 12 -60 12 l-48 0 0 -90z m94 58 c12 -20 -4 -41
-41 -53 -21 -6 -23 -3 -23 35 0 39 2 41 26 38 15 -2 32 -11 38 -20z m0 -91 c9
-15 7 -22 -13 -38 -32 -26 -45 -20 -49 25 -3 35 -2 37 24 34 15 -2 32 -11 38
-21z" fill="#2764F6"/>
<path d="M1180 264 c0 -3 14 -23 31 -44 l31 -39 -36 -44 c-40 -49 -43 -57 -21
-57 8 0 24 18 35 40 11 22 24 40 29 40 5 0 21 -19 36 -41 18 -28 30 -38 37
-31 7 7 0 23 -22 51 l-33 40 32 39 c34 44 37 52 18 52 -7 0 -21 -16 -31 -35
-11 -19 -23 -35 -27 -35 -4 0 -17 16 -29 35 -18 30 -50 48 -50 29z" fill="#2764F6"/>
</g>
</svg>
